Coordinates
version=1
nRows=10
nColumns=40
inDegrees=yes

Units are S.I. units (second, meters, Newtons, ...)
Angles are in degrees.

endheader
time	pelvis_tilt	pelvis_list	pelvis_rotation	pelvis_tx	pelvis_ty	pelvis_tz	hip_flexion_r	hip_adduction_r	hip_rotation_r	knee_angle_r	knee_angle_r_beta	ankle_angle_r	subtalar_angle_r	mtp_angle_r	hip_flexion_l	hip_adduction_l	hip_rotation_l	knee_angle_l	knee_angle_l_beta	ankle_angle_l	subtalar_angle_l	mtp_angle_l	lumbar_extension	lumbar_bending	lumbar_rotation	arm_flex_r	arm_add_r	arm_rot_r	elbow_flex_r	pro_sup_r	wrist_flex_r	wrist_dev_r	arm_flex_l	arm_add_l	arm_rot_l	elbow_flex_l	pro_sup_l	wrist_flex_l	wrist_dev_l
      5.04500019	    -14.96650881	      1.87094109	     13.99070497	     -2.17930507	      0.96708237	      0.29490430	     23.72767647	     -3.12081094	    -12.02121366	    105.15236742	    105.15236742	     -8.94828024	      0.00000000	      0.00000000	     37.71190764	      2.01610578	     -5.16691939	     42.84190616	     42.84190616	      6.87621620	      0.00000000	      0.00000000	    -31.72702894	     -4.29979770	     -6.29723174	     -6.90617728	    -11.13251741	    -23.14411469	     72.44212709	     26.65322400	      0.00000000	      0.00000000	     15.59566885	    -23.37511230	      4.67045082	     98.76136998	     39.55535078	      0.00000000	      0.00000000
      5.05000019	    -14.72213425	      1.64671126	     15.31072295	     -2.14942306	      0.96421169	      0.29306266	     26.18546160	     -3.80601877	    -12.61447477	    107.66542612	    107.66542612	     -6.95997989	      0.00000000	      0.00000000	     35.54774081	      2.32551284	     -3.62234130	     43.09098968	     43.09098968	      9.61168768	      0.00000000	      0.00000000	    -31.52047240	     -3.43652208	     -7.58599736	     -9.68828730	    -11.24849713	    -22.08391020	     70.34322496	     29.61325518	      0.00000000	      0.00000000	     19.62461299	    -22.35529208	      5.70304866	     99.72615413	     40.59557627	      0.00000000	      0.00000000
      5.05500019	    -14.43910422	      1.32932613	     16.66890048	     -2.11969949	      0.96122232	      0.29111911	     28.66497578	     -4.50697325	    -13.16789734	    109.87599634	    109.87599634	     -4.98790368	      0.00000000	      0.00000000	     33.36515718	      2.46159537	     -2.01633063	     43.28088084	     43.28088084	     12.30282374	      0.00000000	      0.00000000	    -31.29483081	     -2.43193633	     -8.93071383	    -12.57573462	    -11.46476203	    -20.86178768	     68.86276483	     30.99111222	      0.00000000	      0.00000000	     23.65829261	    -21.34137550	      6.59034549	    100.72818077	     40.91584212	      0.00000000	      0.00000000
      5.06000019	    -14.13401212	      0.91173353	     18.06738678	     -2.09016018	      0.95813379	      0.28907923	     31.18337683	     -5.23621153	    -13.69691435	    111.76923053	    111.76923053	     -3.06159706	      0.00000000	      0.00000000	     31.21009990	      2.40143225	     -0.37132434	     43.42433079	     43.42433079	     14.84488144	      0.00000000	      0.00000000	    -31.03609957	     -1.28353848	    -10.29560382	    -15.58595239	    -11.76684180	    -19.56024837	     67.98561284	     31.00443509	      0.00000000	      0.00000000	     27.74036476	    -20.33215770	      7.35754566	    101.70422538	     40.98625861	      0.00000000	      0.00000000
      5.06500019	    -13.82957135	      0.40034683	     19.49733660	     -2.06081024	      0.95496213	      0.28696269	     33.76028962	     -6.01544015	    -14.19650929	    113.33432469	    113.33432469	     -1.21380015	      0.00000000	      0.00000000	     29.12275464	      2.13689708	      1.28470961	     43.52429014	     43.52429014	     17.15282688	      0.00000000	      0.00000000	    -30.72723029	     -0.00937000	    -11.64482235	    -18.68653852	    -12.11650221	    -18.43977003	     67.15538207	     36.04667864	      0.00000000	      0.00000000	     31.89431359	    -19.32534827	      8.04406714	    102.67682213	     40.21750508	      0.00000000	      0.00000000
      5.07000019	    -13.55523530	     -0.18763955	     20.93561368	     -2.03162838	      0.95171961	      0.28480880	     36.41895772	     -6.86612633	    -14.63819091	    114.56422933	    114.56422933	      0.52349781	      0.00000000	      0.00000000	     27.13598862	      1.67471065	      2.91841456	     43.56926796	     43.56926796	     19.15764857	      0.00000000	      0.00000000	    -30.34526507	      1.35431653	    -12.95345624	    -21.89896731	    -12.48496916	    -17.45324098	     66.77641331	     40.69036304	      0.00000000	      0.00000000	     36.12143882	    -18.31236965	      8.62178310	    103.54471188	     39.85551521	      0.00000000	      0.00000000
      5.07500019	    -13.34782675	     -0.82946090	     22.34201657	     -2.00256509	      0.94841167	      0.28268165	     39.18952530	     -7.79797497	    -14.97099799	    115.45506045	    115.45506045	      2.12054215	      0.00000000	      0.00000000	     25.27751957	      1.03371371	      4.49016675	     43.53654282	     43.53654282	     20.80535170	      0.00000000	      0.00000000	    -29.86128891	      2.75388326	    -14.19283589	    -25.18667960	    -12.82238264	    -16.75494254	     66.60266021	     47.14438183	      0.00000000	      0.00000000	     40.39723683	    -17.29695223	      9.09991006	    104.37442006	     39.03224930	      0.00000000	      0.00000000
      5.08000019	    -13.24861956	     -1.50204274	     23.66119991	     -1.97354417	      0.94503930	      0.28066220	     42.10730650	     -8.80030366	    -15.12896600	    116.00419911	    116.00419911	      3.55198009	      0.00000000	      0.00000000	     23.56908283	      0.24253392	      5.95806261	     43.39905000	     43.39905000	     22.05480922	      0.00000000	      0.00000000	    -29.24284200	      4.12642095	    -15.33498904	    -28.51806395	    -13.08516518	    -16.42924130	     66.57194350	     55.44414031	      0.00000000	      0.00000000	     44.68049591	    -16.28917638	      9.45515395	    105.15734339	     38.06464971	      0.00000000	      0.00000000
      5.08500019	    -13.29525936	     -2.18768052	     24.83118350	     -1.94447021	      0.94160671	      0.27882698	     45.20360658	     -9.83842288	    -15.04797279	    116.20713069	    116.20713069	      4.79895836	      0.00000000	      0.00000000	     22.02251539	     -0.66504230	      7.28596856	     43.13320437	     43.13320437	     22.87486191	      0.00000000	      0.00000000	    -28.45896676	      5.41135906	    -16.35474171	    -31.87165540	    -13.24435855	    -16.43772380	     66.73991148	     64.02364900	      0.00000000	      0.00000000	     48.91623350	    -15.30751309	      9.66158380	    105.90321423	     37.13690230	      0.00000000	      0.00000000
      5.09000019	    -13.51208881	     -2.87403359	     25.79259315	     -1.91523869	      0.93813119	      0.27722634	     48.49151904	    -10.85847793	    -14.68185481	    116.05586596	    116.05586596	      5.85056576	      0.00000000	      0.00000000	     20.63258196	     -1.65417048	      8.44836496	     42.72432091	     42.72432091	     23.24305407	      0.00000000	      0.00000000	    -27.48597096	      6.56141749	    -17.24258591	    -35.31463007	    -13.33277859	    -16.16229873	     67.57650065	     64.16309185	      0.00000000	      0.00000000	     53.03642857	    -14.38687744	      9.67482143	    106.57661004	     37.15899791	      0.00000000	      0.00000000
